<svg width="132" height="34" viewBox="0 0 132 34" fill="none" xmlns="http://www.w3.org/2000/svg">
<path d="M11.8008 26H8.22656V8.86719H18.0469V11.8438H11.8008V16.2617H17.6133V19.2266H11.8008V26ZM24.6914 12.8984V26H21.1172V12.8984H24.6914ZM22.9102 7.76562C23.4414 7.76562 23.8984 7.89063 24.2812 8.14062C24.6641 8.38281 24.8555 8.83984 24.8555 9.51172C24.8555 10.1758 24.6641 10.6367 24.2812 10.8945C23.8984 11.1445 23.4414 11.2695 22.9102 11.2695C22.3711 11.2695 21.9102 11.1445 21.5273 10.8945C21.1523 10.6367 20.9648 10.1758 20.9648 9.51172C20.9648 8.83984 21.1523 8.38281 21.5273 8.14062C21.9102 7.89063 22.3711 7.76562 22.9102 7.76562ZM35.8945 12.6523C37.293 12.6523 38.418 13.0352 39.2695 13.8008C40.1211 14.5586 40.5469 15.7773 40.5469 17.457V26H36.9727V18.3477C36.9727 17.4102 36.8008 16.7031 36.457 16.2266C36.1211 15.75 35.5898 15.5117 34.8633 15.5117C33.7695 15.5117 33.0234 15.8828 32.625 16.625C32.2266 17.3672 32.0273 18.4375 32.0273 19.8359V26H28.4531V12.8984H31.1836L31.6641 14.5742H31.8633C32.1445 14.1211 32.4922 13.7539 32.9062 13.4727C33.3281 13.1914 33.793 12.9844 34.3008 12.8516C34.8164 12.7188 35.3477 12.6523 35.8945 12.6523Z" fill="#3E529F"/>
<path d="M44.5078 8.86719H49.8398C52.1211 8.86719 53.8477 9.1875 55.0195 9.82812C56.1914 10.4688 56.7773 11.5938 56.7773 13.2031C56.7773 13.8516 56.6719 14.4375 56.4609 14.9609C56.2578 15.4844 55.9609 15.9141 55.5703 16.25C55.1797 16.5859 54.7031 16.8047 54.1406 16.9062V17.0234C54.7109 17.1406 55.2266 17.3438 55.6875 17.6328C56.1484 17.9141 56.5156 18.3281 56.7891 18.875C57.0703 19.4141 57.2109 20.1328 57.2109 21.0312C57.2109 22.0703 56.957 22.9609 56.4492 23.7031C55.9414 24.4453 55.2148 25.0156 54.2695 25.4141C53.332 25.8047 52.2148 26 50.918 26H44.5078V8.86719ZM48.1406 15.6523H50.25C51.3047 15.6523 52.0352 15.4883 52.4414 15.1602C52.8477 14.8242 53.0508 14.332 53.0508 13.6836C53.0508 13.0273 52.8086 12.5586 52.3242 12.2773C51.8477 11.9883 51.0898 11.8438 50.0508 11.8438H48.1406V15.6523ZM48.1406 18.5352V23H50.5078C51.6016 23 52.3633 22.7891 52.793 22.3672C53.2227 21.9453 53.4375 21.3789 53.4375 20.668C53.4375 20.2461 53.3438 19.875 53.1562 19.5547C52.9688 19.2344 52.6523 18.9844 52.207 18.8047C51.7695 18.625 51.1641 18.5352 50.3906 18.5352H48.1406ZM72.2578 19.4258C72.2578 20.5195 72.1094 21.4883 71.8125 22.332C71.5234 23.1758 71.0977 23.8906 70.5352 24.4766C69.9805 25.0547 69.3086 25.4922 68.5195 25.7891C67.7383 26.0859 66.8555 26.2344 65.8711 26.2344C64.9492 26.2344 64.1016 26.0859 63.3281 25.7891C62.5625 25.4922 61.8945 25.0547 61.3242 24.4766C60.7617 23.8906 60.3242 23.1758 60.0117 22.332C59.707 21.4883 59.5547 20.5195 59.5547 19.4258C59.5547 17.9727 59.8125 16.7422 60.3281 15.7344C60.8438 14.7266 61.5781 13.9609 62.5312 13.4375C63.4844 12.9141 64.6211 12.6523 65.9414 12.6523C67.168 12.6523 68.2539 12.9141 69.1992 13.4375C70.1523 13.9609 70.8984 14.7266 71.4375 15.7344C71.9844 16.7422 72.2578 17.9727 72.2578 19.4258ZM63.1992 19.4258C63.1992 20.2852 63.293 21.0078 63.4805 21.5938C63.668 22.1797 63.9609 22.6211 64.3594 22.918C64.7578 23.2148 65.2773 23.3633 65.918 23.3633C66.5508 23.3633 67.0625 23.2148 67.4531 22.918C67.8516 22.6211 68.1406 22.1797 68.3203 21.5938C68.5078 21.0078 68.6016 20.2852 68.6016 19.4258C68.6016 18.5586 68.5078 17.8398 68.3203 17.2695C68.1406 16.6914 67.8516 16.2578 67.4531 15.9688C67.0547 15.6797 66.5352 15.5352 65.8945 15.5352C64.9492 15.5352 64.2617 15.8594 63.832 16.5078C63.4102 17.1562 63.1992 18.1289 63.1992 19.4258ZM80.5781 12.6289C82.3359 12.6289 83.6836 13.0117 84.6211 13.7773C85.5586 14.543 86.0273 15.707 86.0273 17.2695V26H83.5312L82.8398 24.2188H82.7461C82.3711 24.6875 81.9883 25.0703 81.5977 25.3672C81.207 25.6641 80.7578 25.8828 80.25 26.0234C79.7422 26.1641 79.125 26.2344 78.3984 26.2344C77.625 26.2344 76.9297 26.0859 76.3125 25.7891C75.7031 25.4922 75.2227 25.0391 74.8711 24.4297C74.5195 23.8125 74.3438 23.0312 74.3438 22.0859C74.3438 20.6953 74.832 19.6719 75.8086 19.0156C76.7852 18.3516 78.25 17.9844 80.2031 17.9141L82.4766 17.8438V17.2695C82.4766 16.582 82.2969 16.0781 81.9375 15.7578C81.5781 15.4375 81.0781 15.2773 80.4375 15.2773C79.8047 15.2773 79.1836 15.3672 78.5742 15.5469C77.9648 15.7266 77.3555 15.9531 76.7461 16.2266L75.5625 13.8125C76.2578 13.4453 77.0352 13.1562 77.8945 12.9453C78.7617 12.7344 79.6562 12.6289 80.5781 12.6289ZM82.4766 19.9297L81.0938 19.9766C79.9375 20.0078 79.1328 20.2148 78.6797 20.5977C78.2344 20.9805 78.0117 21.4844 78.0117 22.1094C78.0117 22.6562 78.1719 23.0469 78.4922 23.2812C78.8125 23.5078 79.2305 23.6211 79.7461 23.6211C80.5117 23.6211 81.1562 23.3945 81.6797 22.9414C82.2109 22.4883 82.4766 21.8438 82.4766 21.0078V19.9297ZM97.0312 12.6523C97.2109 12.6523 97.418 12.6641 97.6523 12.6875C97.8945 12.7031 98.0898 12.7266 98.2383 12.7578L97.9688 16.1094C97.8516 16.0703 97.6836 16.043 97.4648 16.0273C97.2539 16.0039 97.0703 15.9922 96.9141 15.9922C96.4531 15.9922 96.0039 16.0508 95.5664 16.168C95.1367 16.2852 94.75 16.4766 94.4062 16.7422C94.0625 17 93.7891 17.3438 93.5859 17.7734C93.3906 18.1953 93.293 18.7148 93.293 19.332V26H89.7188V12.8984H92.4258L92.9531 15.1016H93.1289C93.3867 14.6562 93.707 14.25 94.0898 13.8828C94.4805 13.5078 94.9219 13.2109 95.4141 12.9922C95.9141 12.7656 96.4531 12.6523 97.0312 12.6523ZM104.766 26.2344C103.305 26.2344 102.113 25.6641 101.191 24.5234C100.277 23.375 99.8203 21.6914 99.8203 19.4727C99.8203 17.2305 100.285 15.5352 101.215 14.3867C102.145 13.2305 103.359 12.6523 104.859 12.6523C105.484 12.6523 106.035 12.7383 106.512 12.9102C106.988 13.082 107.398 13.3125 107.742 13.6016C108.094 13.8906 108.391 14.2148 108.633 14.5742H108.75C108.703 14.3242 108.645 13.957 108.574 13.4727C108.512 12.9805 108.48 12.4766 108.48 11.9609V7.76562H112.066V26H109.324L108.633 24.3008H108.48C108.254 24.6602 107.969 24.9883 107.625 25.2852C107.289 25.5742 106.887 25.8047 106.418 25.9766C105.949 26.1484 105.398 26.2344 104.766 26.2344ZM106.02 23.3867C106.996 23.3867 107.684 23.0977 108.082 22.5195C108.488 21.9336 108.703 21.0547 108.727 19.8828V19.4961C108.727 18.2227 108.531 17.25 108.141 16.5781C107.75 15.8984 107.023 15.5586 105.961 15.5586C105.172 15.5586 104.555 15.8984 104.109 16.5781C103.664 17.2578 103.441 18.2383 103.441 19.5195C103.441 20.8008 103.664 21.7656 104.109 22.4141C104.562 23.0625 105.199 23.3867 106.02 23.3867Z" fill="#95293F"/>
<line y1="32.5" x2="123" y2="32.5" stroke="#3F9529" stroke-width="3"/>
<path d="M123 2L114.34 17H131.66L123 2ZM124.5 34V15.5H121.5V34H124.5Z" fill="#3F9529"/>
</svg>
